<svg xmlns="http://www.w3.org/2000/svg" viewBox="0 0 32 32">
  <defs>
    <linearGradient id="g" x1="0" y1="0" x2="1" y2="1">
      <stop offset="0%" stop-color="#818cf8"/>
      <stop offset="100%" stop-color="#8b5cf6"/>
    </linearGradient>
  </defs>
  <circle cx="16" cy="16" r="15" fill="#0c0c1c" stroke="url(#g)" stroke-width="1.5"/>
  <path d="M20.5 8C17 8 13.5 10.5 12 14c-1 2.5-0.8 5.5 0.5 8 1.5 2.5 4 4 7 4 1.5 0 3-0.5 4.5-1.5-1.5 0.5-3 0.3-4.5-0.5-2-1.2-3.2-3.3-3.2-5.8 0-2.5 1.2-4.8 3.2-6 1.5-0.8 3-1 4.5-0.5C22.5 9 21.5 8 20.5 8z" fill="url(#g)"/>
  <circle cx="22" cy="10" r="1.2" fill="#a5b4fc" opacity="0.8"/>
  <circle cx="25" cy="13" r="0.7" fill="#a5b4fc" opacity="0.5"/>
</svg>
